<svg width="14" height="15" viewBox="0 0 14 15" fill="none" xmlns="http://www.w3.org/2000/svg">
<path d="M10.7916 12.75C11.5971 12.75 12.25 12.0971 12.25 11.2917C12.25 10.4863 11.5971 9.83337 10.7916 9.83337C9.98623 9.83337 9.33331 10.4863 9.33331 11.2917C9.33331 12.0971 9.98623 12.75 10.7916 12.75Z" stroke="#2B2B2B" stroke-width="1.1" stroke-linecap="round" stroke-linejoin="round"/>
<path d="M3.20833 12.75C4.01375 12.75 4.66667 12.0971 4.66667 11.2917C4.66667 10.4863 4.01375 9.83337 3.20833 9.83337C2.40292 9.83337 1.75 10.4863 1.75 11.2917C1.75 12.0971 2.40292 12.75 3.20833 12.75Z" stroke="#2B2B2B" stroke-width="1.1" stroke-linecap="round" stroke-linejoin="round"/>
<path d="M9.33331 5.16663H11.6666L13.4166 6.91663V9.83329H9.33331V5.16663Z" stroke="#2B2B2B" stroke-width="1.1" stroke-linecap="round" stroke-linejoin="round"/>
<path d="M9.33331 2.25H0.583313V9.83333H9.33331V2.25Z" stroke="#2B2B2B" stroke-width="1.1" stroke-linecap="round" stroke-linejoin="round"/>
</svg>
