<svg width="34" height="28" viewBox="0 0 34 28" fill="none" xmlns="http://www.w3.org/2000/svg">
<path d="M25.1157 9.70667C24.8799 9.33898 24.557 9.03514 24.1757 8.82209C23.7944 8.60904 23.3664 8.49336 22.9296 8.4853H6.1845L5.58267 6.06912C5.43866 5.49512 5.10703 4.98568 4.64042 4.62169C4.1738 4.2577 3.59896 4.06002 3.00717 4.06006H1.7327C1.49798 4.06006 1.27286 4.1533 1.10688 4.31928C0.940902 4.48526 0.847656 4.71038 0.847656 4.94511C0.847656 5.17984 0.940902 5.40495 1.10688 5.57093C1.27286 5.73691 1.49798 5.83016 1.7327 5.83016H3.00717C3.20935 5.82427 3.40744 5.8878 3.56848 6.01019C3.72951 6.13257 3.84377 6.30642 3.89222 6.50279L7.64483 21.5486C7.79269 22.1133 8.12252 22.6135 8.58328 22.9719C9.04404 23.3303 9.61006 23.5268 10.1938 23.5311H20.3187C20.5535 23.5311 20.7786 23.4379 20.9446 23.2719C21.1105 23.1059 21.2038 22.8808 21.2038 22.6461C21.2038 22.4114 21.1105 22.1862 20.9446 22.0203C20.7786 21.8543 20.5535 21.761 20.3187 21.761H10.1938C9.99159 21.7669 9.7935 21.7034 9.63247 21.581C9.47143 21.4586 9.35718 21.2848 9.30872 21.0884L9.06091 19.9909H20.0621C20.5733 19.9923 21.0742 19.8461 21.5043 19.5698C21.9345 19.2935 22.2758 18.8988 22.4871 18.4333L25.3016 12.2379C25.4844 11.834 25.5631 11.3908 25.5307 10.9486C25.4982 10.5065 25.3555 10.0795 25.1157 9.70667ZM23.6908 11.4768L20.8675 17.6721C20.7977 17.8274 20.6845 17.9592 20.5417 18.0519C20.3988 18.1445 20.2323 18.1939 20.0621 18.1943H8.61838L6.62702 10.2554H22.9296C23.0772 10.2557 23.2224 10.2929 23.352 10.3637C23.4816 10.4344 23.5914 10.5365 23.6714 10.6605C23.7515 10.7845 23.7992 10.9266 23.8103 11.0738C23.8214 11.221 23.7955 11.3687 23.735 11.5033L23.6908 11.4768ZM11.4682 25.7438C11.4682 26.0063 11.3904 26.263 11.2445 26.4813C11.0986 26.6996 10.8913 26.8698 10.6487 26.9703C10.4061 27.0708 10.1392 27.097 9.88167 27.0458C9.62415 26.9946 9.3876 26.8682 9.20193 26.6825C9.01627 26.4968 8.88983 26.2603 8.8386 26.0027C8.78738 25.7452 8.81367 25.4783 8.91415 25.2357C9.01463 24.9931 9.18479 24.7858 9.40311 24.6399C9.62143 24.494 9.8781 24.4162 10.1407 24.4162C10.4928 24.4162 10.8304 24.556 11.0794 24.805C11.3284 25.054 11.4682 25.3917 11.4682 25.7438ZM20.3187 25.7438C20.3187 26.0063 20.2409 26.263 20.095 26.4813C19.9491 26.6996 19.7418 26.8698 19.4992 26.9703C19.2566 27.0708 18.9897 27.097 18.7322 27.0458C18.4746 26.9946 18.2381 26.8682 18.0524 26.6825C17.8668 26.4968 17.7403 26.2603 17.6891 26.0027C17.6379 25.7452 17.6642 25.4783 17.7646 25.2357C17.8651 24.9931 18.0353 24.7858 18.2536 24.6399C18.4719 24.494 18.7286 24.4162 18.9912 24.4162C19.3432 24.4162 19.6809 24.556 19.9299 24.805C20.1789 25.054 20.3187 25.3917 20.3187 25.7438Z" fill="#1C1C1C"/>
<path fill-rule="evenodd" clip-rule="evenodd" d="M25.9356 15.958C30.3053 15.958 33.8477 12.4157 33.8477 8.04592C33.8477 3.67617 30.3053 0.133789 25.9356 0.133789C21.5658 0.133789 18.0234 3.67617 18.0234 8.04592C18.0234 12.4157 21.5658 15.958 25.9356 15.958Z" fill="#5DFF49"/>
<path d="M23.7471 13C23.6612 13 23.5796 12.8669 23.5023 12.6007C23.4251 12.3259 23.3864 12.0811 23.3864 11.8664C23.3864 11.7719 23.3993 11.7075 23.4251 11.6732L26.2333 7.58964C26.4136 7.32342 26.5425 7.09154 26.6197 6.89402C26.697 6.68791 26.7357 6.49039 26.7357 6.30146C26.7357 6.00089 26.6412 5.7776 26.4523 5.63161C26.2719 5.47703 26.0272 5.39973 25.718 5.39973C25.5033 5.39973 25.3015 5.43838 25.1126 5.51567C24.9322 5.58437 24.7476 5.67884 24.5587 5.79907C24.3955 5.90212 24.2838 5.95365 24.2237 5.95365C24.0348 5.95365 23.863 5.8506 23.7085 5.64449C23.5625 5.43838 23.4895 5.24515 23.4895 5.06481C23.4895 4.70412 23.7514 4.41642 24.2753 4.20173C24.7991 3.98703 25.3788 3.87968 26.0143 3.87968C26.8645 3.87968 27.5172 4.09867 27.9723 4.53665C28.4361 4.96605 28.668 5.53285 28.668 6.23705C28.668 6.90691 28.4404 7.56388 27.9852 8.20797L25.7567 11.4928H28.3459C28.4833 11.4928 28.5821 11.5444 28.6422 11.6474C28.7023 11.7505 28.7324 11.9136 28.7324 12.1369V12.3559C28.7324 12.5792 28.7023 12.7424 28.6422 12.8454C28.5821 12.9485 28.4833 13 28.3459 13H23.7471Z" fill="#1C1C1C"/>
</svg>
