<svg width="14" height="14" viewBox="0 0 14 14" fill="none" xmlns="http://www.w3.org/2000/svg">
<path d="M4.93955 4.89683L4.93824 4.89789L4.93699 4.89911L4.93955 4.89683ZM10.7461 4.78802C10.7055 4.7489 10.6605 4.71468 10.6119 4.68604C10.5432 4.6456 10.4669 4.61968 10.3878 4.60988C10.3087 4.60009 10.2283 4.60664 10.1518 4.62912C10.0753 4.6516 10.0042 4.68953 9.94297 4.74057C9.8817 4.79161 9.83155 4.85468 9.79563 4.92588C9.59469 5.32178 9.31755 5.67411 8.98013 5.96266C9.03172 5.67193 9.05774 5.37723 9.05788 5.08196C9.05897 4.18368 8.822 3.30116 8.3711 2.52425C7.9202 1.74734 7.27148 1.10379 6.49099 0.659124C6.40501 0.610385 6.30806 0.584288 6.20923 0.583282C6.1104 0.582276 6.01294 0.606394 5.92599 0.653373C5.83904 0.700352 5.76544 0.768652 5.71212 0.851864C5.65879 0.935075 5.62748 1.03047 5.62112 1.1291C5.58847 1.6822 5.44388 2.22292 5.1961 2.71849C4.94831 3.21406 4.6025 3.65416 4.1796 4.01214L4.04516 4.12152C3.60294 4.41907 3.21152 4.78588 2.8859 5.20786C2.37975 5.8455 2.02913 6.59231 1.86184 7.38905C1.69454 8.18578 1.71518 9.01054 1.92212 9.79792C2.12905 10.5853 2.51659 11.3136 3.054 11.9252C3.59141 12.5367 4.26391 13.0146 5.01817 13.321C5.10673 13.3572 5.20283 13.371 5.298 13.3613C5.39318 13.3515 5.48449 13.3185 5.56389 13.2652C5.64329 13.2118 5.70834 13.1397 5.7533 13.0553C5.79826 12.9708 5.82174 12.8766 5.82168 12.7809C5.82127 12.7191 5.81147 12.6576 5.79263 12.5987C5.66213 12.1081 5.62455 11.5974 5.68183 11.093C6.2338 12.1341 7.11983 12.9593 8.19746 13.436C8.32899 13.4949 8.47769 13.5028 8.61474 13.4583C9.46615 13.1835 10.2332 12.6955 10.8429 12.0408C11.4526 11.3861 11.8848 10.5863 12.0983 9.71753C12.3119 8.84873 12.2998 7.93976 12.0631 7.07697C11.8264 6.21418 11.3731 5.42624 10.7461 4.78802ZM8.46832 12.2728C7.95984 12.0151 7.51129 11.6533 7.15183 11.2108C6.79237 10.7684 6.53005 10.2552 6.38194 9.70477C6.3367 9.51942 6.30171 9.33171 6.27712 9.14251C6.26046 9.02203 6.20656 8.90976 6.12296 8.82141C6.03936 8.73306 5.93024 8.67304 5.81085 8.64975C5.77407 8.6425 5.73667 8.63888 5.69919 8.63893C5.59666 8.6389 5.49594 8.66589 5.40717 8.7172C5.31841 8.76851 5.24475 8.84232 5.19361 8.93118C4.7096 9.766 4.46619 10.7185 4.49036 11.6832C4.06467 11.3522 3.7089 10.9401 3.44367 10.4706C3.17845 10.0011 3.00904 9.48363 2.94527 8.94819C2.8815 8.41276 2.92463 7.86998 3.07217 7.35134C3.21971 6.83269 3.46873 6.34849 3.80478 5.92679C4.05993 5.59536 4.36774 5.30804 4.71594 5.07629C4.73102 5.06656 4.74548 5.0559 4.75924 5.04438C4.75924 5.04438 4.93231 4.90119 4.93822 4.89791C5.76929 4.19497 6.36039 3.25029 6.62915 2.19551C7.26474 2.78306 7.68854 3.56402 7.83476 4.41714C7.98098 5.27025 7.84143 6.14777 7.43779 6.91344C7.38446 7.01561 7.36258 7.13129 7.37492 7.24588C7.38725 7.36047 7.43325 7.46884 7.5071 7.55732C7.58095 7.6458 7.67936 7.71042 7.78989 7.74304C7.90043 7.77566 8.01816 7.77482 8.12821 7.74061C9.02176 7.46051 9.80804 6.9134 10.3812 6.1729C10.7257 6.68174 10.9509 7.26176 11.0401 7.86974C11.1293 8.47772 11.0801 9.09798 10.8962 9.68431C10.7123 10.2706 10.3985 10.8079 9.97815 11.2561C9.55777 11.7043 9.04167 12.0518 8.4683 12.2728L8.46832 12.2728Z" fill="#2B2B2B"/>
</svg>
