<svg width="31" height="31" viewBox="0 0 31 31" fill="none" xmlns="http://www.w3.org/2000/svg">
<g id="WhatsApp">
<g id="Vector">
<path d="M28.177 9.34483C27.4621 7.75674 26.4359 6.33094 25.133 5.1022C23.8301 3.88505 22.3196 2.92292 20.6362 2.2506C18.8951 1.55508 17.0502 1.20733 15.1477 1.20733C13.2452 1.20733 11.4004 1.55508 9.65929 2.2506C7.97586 2.92292 6.46539 3.87346 5.16246 5.1022C3.85953 6.33094 2.83335 7.75674 2.11846 9.34483C1.38052 10.9909 1 12.7528 1 14.5612C1 17.7258 2.17608 20.7628 4.33225 23.1739L3.17922 29.4915L9.31338 26.7442C11.1467 27.5325 13.0953 27.9266 15.1362 27.9266C17.0387 27.9266 18.8836 27.5789 20.6246 26.8833C22.3081 26.211 23.8186 25.2605 25.1215 24.0317C26.4244 22.803 27.4506 21.3772 28.1655 19.7891C28.9034 18.1431 29.2839 16.3811 29.2839 14.5728C29.2955 12.7528 28.915 11.0025 28.177 9.34483Z" fill="#5DFF49"/>
<path d="M20.8899 17.2273C20.2903 16.9259 19.8522 16.7404 19.5409 16.6245C19.3448 16.5549 18.8836 16.3463 18.7222 16.4738C18.2149 16.8911 17.6729 18.0735 17.0964 18.2937C15.6666 18.0155 14.3407 17.0302 13.3029 16.0217C12.8417 15.5812 11.9885 14.3293 11.804 13.9931C11.7694 13.6454 12.392 13.1817 12.5304 12.9151C13.2453 12.1036 12.7034 11.5936 12.6111 11.2574C12.4497 10.9097 12.173 10.2837 11.9308 9.77367C11.7233 9.43751 11.6771 8.93905 11.3082 8.75358C9.74003 7.94215 8.84071 9.56501 8.47174 10.4112C6.24638 15.8014 19.6215 26.0603 22.3427 18.9892C22.4811 18.3748 22.4234 18.143 22.2159 17.8648C21.8008 17.575 21.3165 17.4475 20.8899 17.2273Z" fill="#5DFF49"/>
<path d="M28.177 9.34483C27.4621 7.75674 26.4359 6.33094 25.133 5.1022C23.8301 3.88505 22.3196 2.92292 20.6362 2.2506C18.8951 1.55508 17.0502 1.20733 15.1477 1.20733C13.2452 1.20733 11.4004 1.55508 9.65929 2.2506C7.97586 2.92292 6.46539 3.87346 5.16246 5.1022C3.85953 6.33094 2.83335 7.75674 2.11846 9.34483C1.38052 10.9909 1 12.7528 1 14.5612C1 17.7258 2.17608 20.7628 4.33225 23.1739L3.17922 29.4915L9.31338 26.7442C11.1467 27.5325 13.0953 27.9266 15.1362 27.9266C17.0387 27.9266 18.8836 27.5789 20.6246 26.8833C22.3081 26.211 23.8186 25.2605 25.1215 24.0317C26.4244 22.803 27.4506 21.3772 28.1655 19.7891C28.9034 18.1431 29.2839 16.3811 29.2839 14.5728C29.2955 12.7528 28.915 11.0025 28.177 9.34483Z" stroke="#5DFF49" stroke-width="1.69705"/>
<path d="M20.8899 17.2273C20.2903 16.9259 19.8522 16.7404 19.5409 16.6245C19.3448 16.5549 18.8836 16.3463 18.7222 16.4738C18.2149 16.8911 17.6729 18.0735 17.0964 18.2937C15.6666 18.0155 14.3407 17.0302 13.3029 16.0217C12.8417 15.5812 11.9885 14.3293 11.804 13.9931C11.7694 13.6454 12.392 13.1817 12.5304 12.9151C13.2453 12.1036 12.7034 11.5936 12.6111 11.2574C12.4497 10.9097 12.173 10.2837 11.9308 9.77367C11.7233 9.43751 11.6771 8.93905 11.3082 8.75358C9.74003 7.94215 8.84071 9.56501 8.47174 10.4112C6.24638 15.8014 19.6215 26.0603 22.3427 18.9892C22.4811 18.3748 22.4234 18.143 22.2159 17.8648C21.8008 17.575 21.3165 17.4475 20.8899 17.2273Z" stroke="#5DFF49" stroke-width="1.69705"/>
</g>
<path id="Vector_2" d="M20.8902 17.2273C20.2906 16.9259 19.8525 16.7405 19.5412 16.6245C19.3451 16.555 18.8839 16.3463 18.7225 16.4738C18.2152 16.8912 17.6732 18.0735 17.0967 18.2938C15.6669 18.0156 14.341 17.0303 13.3032 16.0218C12.842 15.5813 11.9888 14.3294 11.8043 13.9932C11.7697 13.6454 12.3923 13.1818 12.5307 12.9151C13.2456 12.1037 12.7037 11.5937 12.6114 11.2575C12.45 10.9097 12.1733 10.2838 11.9311 9.77374C11.7236 9.43758 11.6774 8.93913 11.3084 8.75366C9.74032 7.94222 8.841 9.56509 8.47203 10.4113C6.24668 15.8015 19.6218 26.0603 22.343 18.9893C22.4814 18.3749 22.4237 18.1431 22.2162 17.8649C21.8011 17.5751 21.3168 17.4476 20.8902 17.2273Z" fill="white"/>
</g>
</svg>
