<svg width="18" height="18" viewBox="0 0 18 18" fill="none" xmlns="http://www.w3.org/2000/svg">
  <g id="basket">
    <path id="Vector"
      d="M5.25 7.5L9 3L12.75 7.5M15.75 7.5L14.25 13.5C14.1799 13.9299 13.9914 14.3154 13.7173 14.5895C13.4432 14.8636 13.1009 15.0088 12.75 15H5.25C4.89908 15.0088 4.55679 14.8636 4.28271 14.5895C4.00864 14.3154 3.82013 13.9299 3.75 13.5L2.25 7.5H15.75ZM10.5 11.25C10.5 12.0784 9.82843 12.75 9 12.75C8.17157 12.75 7.5 12.0784 7.5 11.25C7.5 10.4216 8.17157 9.75 9 9.75C9.82843 9.75 10.5 10.4216 10.5 11.25Z"
      stroke="#fff" stroke-linecap="round" stroke-linejoin="round" />
  </g>
</svg>
