<svg width="16" height="16" viewBox="0 0 16 16" fill="none" xmlns="http://www.w3.org/2000/svg">
<path d="M6.94637 13.6927C6.94632 13.8166 6.98078 13.938 7.0459 14.0434C7.11102 14.1488 7.20422 14.234 7.31504 14.2894L8.64837 14.956C8.75004 15.0068 8.863 15.0308 8.97654 15.0257C9.09007 15.0205 9.20041 14.9864 9.29706 14.9267C9.39372 14.8669 9.47349 14.7834 9.52879 14.6841C9.58409 14.5848 9.61309 14.473 9.61304 14.3594V9.69271C9.61319 9.3623 9.73602 9.04371 9.95771 8.79871L14.773 3.47271C14.8593 3.37708 14.9161 3.2585 14.9364 3.1313C14.9568 3.0041 14.9398 2.87373 14.8876 2.75596C14.8355 2.63819 14.7503 2.53806 14.6424 2.46768C14.5345 2.3973 14.4085 2.35968 14.2797 2.35938H2.27971C2.15078 2.35942 2.02463 2.39685 1.91654 2.46713C1.80845 2.53741 1.72306 2.63753 1.67071 2.75535C1.61836 2.87317 1.6013 3.00365 1.62159 3.13097C1.64188 3.25829 1.69866 3.377 1.78504 3.47271L6.60171 8.79871C6.8234 9.04371 6.94622 9.3623 6.94637 9.69271V13.6927Z" stroke="#0A0A0A" stroke-width="1.33333" stroke-linecap="round" stroke-linejoin="round"/>
</svg>
