<svg width="122" height="28" viewBox="0 0 122 28" fill="none" xmlns="http://www.w3.org/2000/svg">
<path d="M14.883 6.27734C13.1619 6.27734 11.7444 6.88482 10.5295 8.09976C9.31456 6.88482 7.8465 6.27734 6.17596 6.27734C4.45479 6.27734 3.03736 6.88482 1.82241 8.04914C0.607471 9.26408 0 10.7321 0 12.4027V18.2243H3.08798V12.4027C3.08798 11.5421 3.39172 10.8334 3.99919 10.2765C4.60666 9.66906 5.31537 9.41595 6.17596 9.41595C6.98592 9.41595 7.74526 9.71968 8.30211 10.3272C8.90958 10.9346 9.21332 11.6433 9.21332 12.4533V18.2243H12.3013V10.8334C12.9088 9.87155 13.7694 9.36532 14.883 9.36532C15.7436 9.36532 16.4523 9.66906 17.0092 10.2259C17.6167 10.8334 17.8698 11.5421 17.8698 12.3521V18.2243H20.9578V12.4027C20.9578 10.6815 20.3503 9.26408 19.1353 8.04914C18.0723 6.88482 16.6042 6.27734 14.883 6.27734Z" fill="#1C1C1C"/>
<path d="M33.7654 7.39104C32.7024 6.6317 31.538 6.27734 30.2219 6.27734C29.5131 6.27734 28.8044 6.42921 28.0957 6.68232C26.8808 7.13793 25.8683 7.89727 25.1596 8.90972C24.4003 9.97279 24.0459 11.1371 24.0459 12.4533C24.0459 13.2126 24.1471 13.8707 24.4003 14.5288C24.8559 15.7438 25.6152 16.7562 26.6277 17.4649C27.6907 18.2243 28.855 18.5786 30.1712 18.5786C32.0949 18.5786 33.6136 17.8699 34.8791 16.4019L35.5372 18.1737H38.8277L35.9928 10.3272C35.5879 9.11221 34.8285 8.15038 33.7654 7.39104ZM32.3986 14.6301C31.7912 15.2375 31.0824 15.5413 30.2219 15.5413C29.6144 15.5413 29.0069 15.3388 28.5007 14.9844C27.6401 14.377 27.1845 13.567 27.1845 12.5039C27.1845 11.8965 27.387 11.289 27.7413 10.7321C28.2982 9.87155 29.1588 9.41595 30.2219 9.41595C30.88 9.41595 31.4368 9.56781 31.9936 9.92217C32.8542 10.5296 33.3098 11.3902 33.3098 12.4533C33.2592 13.3139 33.0061 14.0226 32.3986 14.6301Z" fill="#1C1C1C"/>
<path d="M51.8375 9.11207C51.1794 8.09962 50.3188 7.34028 49.2558 6.83405L50.8757 3.03735L48.4458 2.0249L46.674 6.2772C44.9528 6.2772 43.5354 6.88467 42.3205 8.04899C41.1055 9.26394 40.498 10.6814 40.498 12.4025C40.498 14.1237 41.1055 15.5918 42.2698 16.7561C43.4848 17.971 44.9022 18.5279 46.6234 18.5279C47.0284 18.5279 47.3827 18.4772 47.7877 18.376C49.0533 18.9329 49.7114 19.8441 49.7114 21.2109C49.7114 22.0208 49.4076 22.7802 48.8002 23.3876C48.1927 23.9951 47.484 24.2988 46.674 24.2988C45.864 24.2988 45.1047 23.9951 44.5479 23.3876C43.9404 22.7802 43.6366 22.0715 43.6366 21.2109C43.6366 20.8059 43.7379 20.4009 43.8898 20.0465L41.0043 18.8822C40.7005 19.6416 40.5487 20.4009 40.5487 21.1602C40.5487 22.3752 40.903 23.5395 41.6117 24.552C42.8267 26.3744 44.5479 27.2856 46.7246 27.2856C47.9396 27.2856 49.1039 26.9312 50.167 26.2731C51.9894 25.0582 52.9006 23.3876 52.9006 21.1602C52.9006 19.3885 52.2425 17.9204 50.9769 16.7055C52.2425 15.4905 52.9006 14.0225 52.9006 12.3013C52.7993 11.2382 52.4956 10.1245 51.8375 9.11207ZM48.8002 14.5793C48.1927 15.1868 47.484 15.4905 46.6234 15.4905C45.7628 15.4905 45.0541 15.1868 44.4466 14.5793C43.8391 13.9718 43.5354 13.2631 43.5354 12.4025C43.5354 11.542 43.8391 10.8332 44.4466 10.2258C45.0541 9.61829 45.7628 9.31456 46.6234 9.31456C47.4333 9.31456 48.1421 9.61829 48.7495 10.2258C49.357 10.8332 49.6607 11.542 49.6607 12.3519C49.7114 13.2631 49.4076 13.9718 48.8002 14.5793Z" fill="#1C1C1C"/>
<path d="M58.9249 6.27734H55.8369V18.2243H58.9249V6.27734Z" fill="#1C1C1C"/>
<path d="M57.4062 1.77148C56.9 1.77148 56.4444 1.92335 56.0901 2.27771C55.7357 2.63207 55.5332 3.08767 55.5332 3.5939C55.5332 4.10012 55.7357 4.55573 56.0901 4.91009C56.4444 5.26444 56.9 5.46694 57.4062 5.46694C57.9125 5.46694 58.3681 5.26444 58.7224 4.91009C59.0768 4.55573 59.2287 4.10012 59.2287 3.5939C59.2287 3.08767 59.0262 2.63207 58.6718 2.27771C58.3174 1.97397 57.9125 1.77148 57.4062 1.77148Z" fill="#1C1C1C"/>
<path d="M68.0871 15.44C67.2265 15.44 66.5178 15.1363 65.9103 14.5288C65.3028 13.9214 64.9991 13.2126 64.9991 12.3521C64.9991 11.4915 65.3028 10.7828 65.9103 10.2259C66.5178 9.61844 67.2265 9.36532 68.0871 9.36532C68.9983 9.36532 69.707 9.71968 70.3145 10.3778L72.1875 7.84665C71.0232 6.78357 69.6564 6.27734 68.0871 6.27734C66.3659 6.27734 64.9485 6.88482 63.7335 8.04914C62.5186 9.26408 61.9111 10.6815 61.9111 12.4027C61.9111 14.1238 62.5186 15.5919 63.6829 16.7562C64.8979 17.9712 66.3153 18.528 68.0365 18.528C69.6564 18.528 71.0738 17.9712 72.2888 16.8068L70.3145 14.377C69.8083 15.0857 69.0489 15.44 68.0871 15.44Z" fill="#1C1C1C"/>
<path d="M75.4277 6.17596V18.2241H78.5157V13.6681H81.5531V11.0357H78.5157V6.22658C78.5157 5.366 78.8194 4.65728 79.4269 4.04981C80.0344 3.44234 80.7431 3.1386 81.6037 3.1386V0C79.8825 0 78.4145 0.607471 77.2502 1.77179C75.9846 2.98673 75.4277 4.45479 75.4277 6.17596Z" fill="#1C1C1C"/>
<path d="M90.7658 6.27734C89.0446 6.27734 87.6272 6.88482 86.4123 8.04914C85.1973 9.26408 84.5898 10.6815 84.5898 12.4027C84.5898 14.1238 85.1973 15.5919 86.3616 16.7562C87.5766 17.9712 88.994 18.528 90.7152 18.528C92.3351 18.528 93.7525 17.9712 94.9169 16.8575L93.0438 14.3263C92.4363 15.0857 91.677 15.44 90.7152 15.44C90.0571 15.44 89.4496 15.2375 88.8928 14.8326C88.3359 14.4276 87.9816 13.9214 87.7791 13.2633H96.7899C96.8405 12.9595 96.8405 12.6558 96.8405 12.3521C96.8405 10.6309 96.233 9.21346 95.0687 7.99851C93.9044 6.78357 92.487 6.27734 90.7658 6.27734ZM88.0828 10.9852C88.6396 9.87155 89.5509 9.36532 90.7658 9.36532C91.9807 9.36532 92.8413 9.92217 93.4488 10.9852H88.0828Z" fill="#1C1C1C"/>
<path d="M106.105 6.27734C104.384 6.27734 102.966 6.88482 101.751 8.04914C100.536 9.26408 99.9287 10.6815 99.9287 12.4027C99.9287 14.1238 100.536 15.5919 101.701 16.7562C102.915 17.9712 104.333 18.528 106.054 18.528C107.674 18.528 109.091 17.9712 110.256 16.8575L108.383 14.3263C107.775 15.0857 107.016 15.44 106.054 15.44C105.396 15.44 104.788 15.2375 104.232 14.8326C103.675 14.4276 103.32 13.9214 103.118 13.2633H112.129C112.179 12.9595 112.179 12.6558 112.179 12.3521C112.179 10.6309 111.572 9.21346 110.408 7.99851C109.243 6.88482 107.775 6.27734 106.105 6.27734ZM103.422 10.9852C103.979 9.87155 104.89 9.36532 106.105 9.36532C107.32 9.36532 108.18 9.92217 108.788 10.9852H103.422Z" fill="#1C1C1C"/>
<path d="M118.356 0H115.268V12.0988C115.268 13.82 115.875 15.2374 117.09 16.4523C118.305 17.6673 119.722 18.2241 121.444 18.2241V15.1362C120.583 15.1362 119.874 14.8324 119.267 14.2756C118.659 13.6681 118.356 12.9594 118.356 12.1494V9.01082H121.393V6.37845H118.356V0Z" fill="#1C1C1C"/>
</svg>
